PathFileType	4	(X/Y/Z)	T1_P2_Vision_Movement_3_0-736.trc
DataRate	CameraRate	NumFrames	NumMarkers	Units	OrigDataRate	OrigDataStartFrame	OrigNumFrames
60	60	6	27	m	60	460	736
Frame#	Time	RHip			RKnee			RAnkle			RBigToe			RSmallToe			RHeel			LHip			LKnee			LAnkle			LBigToe			LSmallToe			LHeel			Neck			Head			Nose			RShoulder			RElbow			RWrist			RThumb			RIndex			RPinky			LShoulder			LElbow			LWrist			LThumb			LIndex			LPinky		
		X1	Y1	Z1	X2	Y2	Z2	X3	Y3	Z3	X4	Y4	Z4	X5	Y5	Z5	X6	Y6	Z6	X7	Y7	Z7	X8	Y8	Z8	X9	Y9	Z9	X10	Y10	Z10	X11	Y11	Z11	X12	Y12	Z12	X13	Y13	Z13	X14	Y14	Z14	X15	Y15	Z15	X16	Y16	Z16	X17	Y17	Z17	X18	Y18	Z18	X19	Y19	Z19	X20	Y20	Z20	X21	Y21	Z21	X22	Y22	Z22	X23	Y23	Z23	X24	Y24	Z24	X25	Y25	Z25	X26	Y26	Z26	X27	Y27	Z27
461	7.683333333333334	443.1603966775351	3732.701186777744	665.9778707968908	818.5076118820432	3693.0346746235477	653.0484986188953	1223.2470956308964	3758.3063412967626	724.8014985781753	1277.712227602727	3618.971833349774	651.7653802274169	1285.6569919885726	3682.234366939642	625.3484795870696	1282.1757912871358	3807.128331928066	760.0902642878248	455.06075719010687	3633.9713422225127	852.699783972267	842.4302143565884	3670.858326600393	858.2555654308027	1228.582375485833	3699.477102798394	854.5670906864643	1309.1910309917796	3624.7018517033284	806.4373177962442	1260.4126797117015	3571.600279956544	830.2632727219133	1251.7576838892426	3711.912627266303	843.6711359473456	-143.75106258163206	3647.943292979287	781.2193910120496	-393.323841268459	3599.941766303682	806.2926028027787	-242.78047760409763	3479.9810296278483	744.5740186238805	-64.95291771674752	3741.1537497351787	652.2301054322537	153.91865873140975	3650.616793898718	529.3921531831771	47.807775841555994	3566.733690044893	683.4397071218395	-0.9930332019111149	3493.8957826647274	826.8525511422635	0.23771337817311208	3475.402525764768	827.7801602491646	47.653451123143796	3501.115165356226	807.7850437050234	-38.85195607399118	3622.9224155559214	928.8875305631242	224.7825486477896	3617.693238520708	985.8559445001919	470.30978547925315	3584.2276317991004	974.6146224320142	575.7804250455606	3581.0981840041877	954.2078885705009	603.466320154384	3560.5469351974184	960.5485209147789	595.8519455301746	3585.2073110008682	1002.0838653946098
462	7.7	438.0639862820944	3732.000732135167	660.631651488565	818.1050447272013	3715.6114805354073	652.7355066984936	1217.7080514665506	3755.9840445657405	722.9470524380073	1288.233820325435	3626.6272218160925	667.2422654525748	1285.8637753037797	3681.7889628271487	625.2241134666967	1282.039087924787	3807.2592256411376	760.1905889930835	452.58295273363	3651.491040956149	858.2406826590709	834.6235752997957	3659.4738736039712	852.2130068110991	1223.2507849091846	3697.46683263593	852.8662355973706	1309.3460412021748	3624.6496260900976	806.5651522900956	1252.9420126594678	3550.4181557847737	823.1992497423254	1258.2680225380273	3728.029662618672	857.9520625642585	-143.67290048126563	3648.05095056643	781.3127009744811	-391.6482237488327	3578.7274719000834	799.902892335015	-242.6500736328471	3480.477146260437	744.9209665403196	-64.87271701378265	3741.2555418131765	652.3615800602695	153.873316961825	3650.593036718345	529.4000100953369	52.60824285728227	3571.1037983475635	685.4028296028251	4.298005999465546	3494.9290709856587	827.8963444757865	6.0094935991117895	3485.805718234009	839.7281948090896	54.19679193581663	3520.007194125032	823.7257848521598	-38.851573136875444	3622.9023627458255	928.9299923452804	220.41710521314076	3622.2274039984836	988.5851101962219	460.6418164968319	3584.9898697195936	975.7301562902611	570.2944503825724	3576.638958480606	952.109614625635	599.5201054692031	3565.4467760044945	963.5352726579363	595.349250971808	3584.5239482982342	1001.9878582463693
463	7.716666666666667	446.37763157752573	3758.055085118208	667.6888792118522	823.7612012728048	3719.5590652660753	653.7880698444982	1224.294996619383	3760.4546834705006	724.1228147541085	1288.168208708931	3634.4914261141626	654.7356504099137	1285.8188160556156	3682.113908268478	625.1880640872585	1281.981973532127	3807.0666934032893	760.0449273310961	458.3491719592146	3655.8609912073134	859.9513362142359	845.7763062519492	3665.286641309607	854.9336055330267	1223.3888368708565	3696.979802178841	852.4712460096221	1309.1415734964785	3624.0448275292465	806.1731354126645	1269.8367913218387	3570.1544909910413	828.0005674064005	1251.1041362943647	3711.50688309958	843.4747947124451	-134.5730689310071	3647.9664986822913	780.9445587335784	-391.51545437310267	3578.367897862257	799.660716616584	-238.40004047152811	3484.166776947162	746.6539386760469	-59.97706614690538	3745.7239457249207	654.1952651314004	158.43512725011328	3652.0340919399914	530.3028198650974	53.09052829285793	3570.82767209424	685.194694313683	5.085803803600082	3516.2542652281863	834.7287279683792	6.071116712554087	3493.091283662791	833.5872226081216	51.80787152490097	3489.4608644779273	794.6135274897028	-38.314637298898596	3623.9580284235885	929.5170624709355	225.45480388310406	3623.9022968986897	989.5199491418778	466.43962502909864	3592.350488617766	973.6362826642594	570.2799005113196	3576.382116524267	951.8755419854133	590.8319411143145	3549.2287469490434	948.43485796217	595.1993586548152	3586.755358018534	996.9822605404
464	7.733333333333333	443.30540149432613	3736.2388052663364	662.0694846545058	818.1561657708104	3715.6413890193817	652.8148886097814	1210.0123155838621	3738.6351781786875	708.5769163665858	1288.130672578841	3632.1773770990785	659.4971536241163	1285.8405451138806	3682.0532304688504	625.3150056004004	1281.7260162433658	3806.848376161281	759.8580883401401	458.28489373251074	3656.0079994001057	860.0265690425172	839.5547353095488	3660.8453387748077	853.3726227788375	1223.160578483223	3696.901749829997	852.4566987525767	1311.9662536852968	3618.911432985647	802.8083125053286	1263.0531094228409	3566.2659675705545	826.9742772979168	1250.7449806601237	3711.5852137251454	843.4786710472197	-134.34343061142226	3648.083878325764	781.0024705643971	-386.3991045656603	3574.378410158564	797.5651230361707	-238.01072609772825	3483.8734803892607	746.4214152184094	-59.895652057102545	3745.741229890568	654.2812317927238	158.56268525700935	3652.3085797797175	530.343358841107	53.169868926293475	3570.941950792634	685.3242088491943	5.4238131665861165	3516.203543112684	834.8169600516655	7.483224022681154	3506.72524964509	847.1487626944668	57.575454200623426	3497.759298908454	810.2480101401418	-38.2075878480677	3624.064900947895	929.5489338951132	225.49559230113778	3624.184972599523	989.6805452382821	460.6362179002259	3585.15087092059	975.8799611528124	574.7124095704634	3578.480852229505	953.2360626561893	595.7964002017479	3550.788811825517	949.5771614649685	599.8197999357947	3585.1532851473817	1002.8314477567236
465	7.75	443.45780816127666	3736.221686957021	662.0478185422263	823.7623602183088	3719.5215666014165	653.9064381380335	1224.210590366159	3760.121715504045	723.9905523543364	1288.2817867909407	3632.350514411898	659.6952464406252	1285.8777318348295	3682.06604619498	625.2666294824107	1288.3480972159036	3811.4203520019546	761.0160627287638	458.4059180377037	3656.0185257053995	860.0202673625029	845.7340520347232	3665.147773506426	854.9018434476308	1223.0953785488946	3697.157612555622	852.6098960017771	1309.158871816806	3624.6144610898186	806.4159753076646	1263.0676458554176	3566.166491908423	827.0263244191126	1250.796300346218	3711.7393479907937	843.5997236968922	-130.26234257464486	3644.684120797228	779.0211925181081	-382.37309483030805	3577.5538349870994	799.1330370327852	-233.25101742225976	3479.8678858587314	744.2044930890377	-59.911704673024715	3745.47015865421	654.1353927411914	158.72490760008773	3652.288779650929	530.3140526590267	51.91574812949435	3554.5160858992563	671.3237955025871	5.295122330600308	3516.2250305985053	834.4381961580276	10.627131400661137	3494.263796945665	834.413304925887	56.71694669633321	3481.6517530135993	794.7155411155555	-37.98475920812758	3624.4175034093564	929.5789142306467	225.33461478721657	3624.9294761996234	989.91988877484	466.25704746786187	3589.6112535582342	977.7590898341014	579.8276772568278	3583.190837068149	955.2877493032541	600.8326189050214	3552.995760038034	951.0620826922745	600.0058069781682	3585.3006215546457	1002.7991192913805
466	7.766666666666667	443.46795649186856	3736.1240418304174	662.0027937160919	818.5676065973676	3695.6020223625555	648.3856035571483	1209.8296639004286	3738.4949006190536	708.4772347711015	1287.9399003032497	3631.335538147147	659.2107099123497	1278.0920942145663	3665.162659955862	611.2128728569238	1281.6550445334362	3806.7978422719502	759.861692209857	455.2199252630856	3634.3154454898377	852.7957536976629	839.5959637178834	3660.4534991732903	853.1664903312978	1217.9410349133532	3695.239610845153	850.8336290027225	1312.1593448398119	3619.1971333485462	803.0223478591255	1263.1231141064175	3566.3271144209257	827.0919956644617	1250.5628419487239	3711.961290098634	843.6954444684086	-130.12339424248827	3644.7052901739844	779.1453287946324	-382.3361257707927	3577.1338824955455	798.8944325888123	-233.20515370630207	3479.4434088868074	743.9418365963434	-59.88229246479814	3745.5965924457873	654.1888483854794	158.75396746862117	3652.839632290819	530.410277069678	52.07436916299983	3554.263046627725	671.080080406018	5.448642212699711	3515.5858084928345	834.2678763915502	10.001437216043291	3472.6081423765963	826.9364737536965	61.22256646145027	3467.4526842276346	786.08791203422	-38.04055961801115	3624.3921971209934	929.7513721991653	225.40901423704318	3624.580194013263	989.7880756912389	466.33949862946815	3589.6529155745893	977.7638715647462	576.0527088700202	3593.378872911982	954.5601183340247	610.4968131549427	3575.03615237914	962.6338658007625	600.3471867179268	3586.0273807842386	1003.2395646839458
